<?xml version="1.0" standalone="no"?>
<!DOCTYPE svg PUBLIC "-//W3C//DTD SVG 20010904//EN"
 "http://www.w3.org/TR/2001/REC-SVG-20010904/DTD/svg10.dtd">
<svg version="1.0" xmlns="http://www.w3.org/2000/svg"
 width="512.000000pt" height="512.000000pt" viewBox="0 0 512.000000 512.000000"
 preserveAspectRatio="xMidYMid meet">

<g transform="translate(0.000000,512.000000) scale(0.100000,-0.100000)"
fill="#000000" stroke="none">
<path d="M2353 4890 c-996 -97 -1813 -793 -2058 -1754 -53 -209 -69 -342 -69
-576 0 -234 16 -367 69 -576 211 -830 863 -1481 1690 -1689 211 -53 343 -69
575 -69 228 0 356 15 556 63 837 205 1496 858 1709 1695 53 209 69 342 69 576
0 234 -16 367 -69 576 -211 830 -859 1478 -1689 1689 -72 18 -183 40 -246 49
-138 20 -410 28 -537 16z m252 -824 c328 -58 612 -191 872 -409 341 -286 574
-705 633 -1136 19 -141 -9 -180 -174 -240 -61 -23 -455 -167 -875 -321 l-764
-280 -35 32 c-56 49 -112 69 -192 69 -64 0 -75 -3 -118 -33 -36 -26 -56 -52
-84 -107 -20 -41 -38 -87 -40 -104 -3 -29 -8 -31 -180 -95 -172 -63 -178 -64
-203 -48 -14 9 -25 25 -25 36 0 15 416 1166 426 1179 2 2 19 -10 39 -28 78
-68 172 -98 257 -80 43 9 62 20 99 59 103 105 108 273 13 362 -56 51 -113 73
-192 73 -60 0 -72 3 -69 15 3 8 70 193 149 410 80 217 157 429 172 470 38 105
65 150 106 171 42 23 79 24 185 5z"/>
<path d="M2825 3254 c-49 -25 -84 -65 -117 -132 -73 -149 -41 -243 112 -323
36 -19 61 -24 126 -24 104 0 144 24 194 116 30 56 35 73 35 134 0 59 -5 78
-28 117 -29 49 -88 97 -146 116 -48 17 -141 15 -176 -4z"/>
<path d="M2270 3111 c-17 -34 4 -63 43 -59 29 3 32 6 32 38 0 32 -3 35 -32 38
-24 2 -34 -2 -43 -17z"/>
<path d="M3346 2995 c-20 -21 -5 -55 25 -55 24 0 36 27 22 48 -14 23 -29 25
-47 7z"/>
<path d="M2805 2479 c-77 -22 -164 -141 -181 -247 -19 -117 107 -235 264 -249
49 -4 65 -1 112 24 49 26 59 37 93 102 30 59 37 83 37 130 0 102 -64 192 -165
228 -44 16 -125 23 -160 12z"/>
<path d="M2390 2385 c-17 -21 -8 -50 17 -53 30 -4 49 31 27 52 -19 20 -28 20
-44 1z"/>
<path d="M3334 2326 c-11 -29 1 -51 26 -51 19 0 26 6 28 24 5 35 -42 58 -54
27z"/>
<path d="M1867 2183 c-16 -15 -6 -52 15 -59 28 -9 52 20 37 47 -10 19 -39 25
-52 12z"/>
<path d="M2237 1903 c-13 -13 -7 -42 12 -52 27 -15 56 9 47 37 -7 21 -44 31
-59 15z"/>
<path d="M1577 1586 c-11 -28 4 -47 32 -44 20 2 26 8 26 28 0 20 -6 26 -26 28
-17 2 -29 -3 -32 -12z"/>
</g>
</svg>
